<svg xmlns="http://www.w3.org/2000/svg" xmlns:xlink="http://www.w3.org/1999/xlink" width="500" zoomAndPan="magnify" viewBox="0 0 375 374.999991" height="500" preserveAspectRatio="xMidYMid meet" version="1.0"><defs><g/><clipPath id="92f87ed721"><path d="M 57.960938 60.527344 L 311.910156 60.527344 L 311.910156 314.472656 L 57.960938 314.472656 Z M 57.960938 60.527344 " clip-rule="nonzero"/></clipPath><clipPath id="fff19e0769"><path d="M 184.9375 60.527344 C 114.808594 60.527344 57.960938 117.375 57.960938 187.5 C 57.960938 257.625 114.808594 314.472656 184.9375 314.472656 C 255.0625 314.472656 311.910156 257.625 311.910156 187.5 C 311.910156 117.375 255.0625 60.527344 184.9375 60.527344 " clip-rule="nonzero"/></clipPath><clipPath id="1ffb354644"><path d="M 100.730469 103.296875 L 269.140625 103.296875 L 269.140625 271.703125 L 100.730469 271.703125 Z M 100.730469 103.296875 " clip-rule="nonzero"/></clipPath><clipPath id="074d5aae83"><path d="M 184.9375 103.296875 C 138.429688 103.296875 100.730469 140.996094 100.730469 187.5 C 100.730469 234.003906 138.429688 271.703125 184.9375 271.703125 C 231.441406 271.703125 269.140625 234.003906 269.140625 187.5 C 269.140625 140.996094 231.441406 103.296875 184.9375 103.296875 " clip-rule="nonzero"/></clipPath><clipPath id="ba81496428"><path d="M 106 108.5625 L 263.5 108.5625 L 263.5 266.0625 L 106 266.0625 Z M 106 108.5625 " clip-rule="nonzero"/></clipPath><clipPath id="23598a84ca"><path d="M 44.167969 46.730469 L 325.417969 46.730469 L 325.417969 327.980469 L 44.167969 327.980469 Z M 44.167969 46.730469 " clip-rule="nonzero"/></clipPath><clipPath id="c40d5d5e20"><path d="M 153 144.425781 L 163 144.425781 L 163 152 L 153 152 Z M 153 144.425781 " clip-rule="nonzero"/></clipPath><clipPath id="71a278300f"><path d="M 152 144.425781 L 164 144.425781 L 164 152 L 152 152 Z M 152 144.425781 " clip-rule="nonzero"/></clipPath><clipPath id="9b05b6c2bd"><path d="M 221 187 L 250.273438 187 L 250.273438 206 L 221 206 Z M 221 187 " clip-rule="nonzero"/></clipPath><clipPath id="426cc104ef"><path d="M 121.273438 195 L 250 195 L 250 219.425781 L 121.273438 219.425781 Z M 121.273438 195 " clip-rule="nonzero"/></clipPath><clipPath id="afdd984001"><path d="M 208 196 L 223 196 L 223 219.425781 L 208 219.425781 Z M 208 196 " clip-rule="nonzero"/></clipPath><clipPath id="2da3d7f3ff"><path d="M 121.273438 201 L 130 201 L 130 219.425781 L 121.273438 219.425781 Z M 121.273438 201 " clip-rule="nonzero"/></clipPath><clipPath id="90a480c0d6"><path d="M 121.273438 204 L 224 204 L 224 219.425781 L 121.273438 219.425781 Z M 121.273438 204 " clip-rule="nonzero"/></clipPath></defs><g clip-path="url(#92f87ed721)"><g clip-path="url(#fff19e0769)"><path fill="#000000" d="M 57.960938 60.527344 L 311.910156 60.527344 L 311.910156 314.472656 L 57.960938 314.472656 Z M 57.960938 60.527344 " fill-opacity="1" fill-rule="nonzero"/></g></g><g clip-path="url(#1ffb354644)"><g clip-path="url(#074d5aae83)"><path fill="#ffffff" d="M 100.730469 103.296875 L 269.140625 103.296875 L 269.140625 271.703125 L 100.730469 271.703125 Z M 100.730469 103.296875 " fill-opacity="1" fill-rule="nonzero"/></g></g><g clip-path="url(#ba81496428)"><path fill="#000000" d="M 184.75 266.0625 C 141.242188 266.0625 106 230.578125 106 187.3125 C 106 144.050781 141.242188 108.5625 184.75 108.5625 C 228.257812 108.5625 263.5 143.808594 263.5 187.3125 C 263.5 230.820312 228.015625 266.0625 184.75 266.0625 Z M 184.75 113.425781 C 143.917969 113.425781 110.863281 146.480469 110.863281 187.3125 C 110.863281 228.148438 143.917969 261.203125 184.75 261.203125 C 225.582031 261.203125 258.640625 228.148438 258.640625 187.3125 C 258.640625 146.480469 225.339844 113.425781 184.75 113.425781 Z M 184.75 113.425781 " fill-opacity="1" fill-rule="nonzero"/></g><path stroke-linecap="butt" transform="matrix(0.752704, 0.00562594, -0.00560557, 0.749979, 44.740888, 171.800307)" fill="none" stroke-linejoin="miter" d="M 0.00105718 2.00068 L 81.716859 2.002293 " stroke="#ffffff" stroke-width="4" stroke-opacity="1" stroke-miterlimit="4"/><path stroke-linecap="butt" transform="matrix(0.752704, 0.00562594, -0.00560557, 0.749979, 44.740888, 179.907161)" fill="none" stroke-linejoin="miter" d="M 0.00104343 1.998833 L 81.716846 2.000446 " stroke="#ffffff" stroke-width="4" stroke-opacity="1" stroke-miterlimit="4"/><path stroke-linecap="butt" transform="matrix(0.752704, 0.00562594, -0.00560557, 0.749979, 44.740888, 188.519388)" fill="none" stroke-linejoin="miter" d="M 0.0010539 2.00024 L 81.716856 2.001852 " stroke="#ffffff" stroke-width="4" stroke-opacity="1" stroke-miterlimit="4"/><path stroke-linecap="butt" transform="matrix(0.752704, 0.00562594, -0.00560557, 0.749979, 263.549226, 173.841346)" fill="none" stroke-linejoin="miter" d="M 0.00137674 1.998042 L 81.71199 1.999694 " stroke="#ffffff" stroke-width="4" stroke-opacity="1" stroke-miterlimit="4"/><path stroke-linecap="butt" transform="matrix(0.752478, 0.0025614, -0.00255295, 0.749996, 263.543133, 181.948142)" fill="none" stroke-linejoin="miter" d="M 0.00138116 2.001442 L 89.710229 2.00236 " stroke="#ffffff" stroke-width="4" stroke-opacity="1" stroke-miterlimit="4"/><path stroke-linecap="butt" transform="matrix(0.752347, 0.00256072, -0.00255272, 0.749996, 263.543133, 190.560338)" fill="none" stroke-linejoin="miter" d="M 0.00136802 1.997682 L 89.720649 1.998645 " stroke="#ffffff" stroke-width="4" stroke-opacity="1" stroke-miterlimit="4"/><g clip-path="url(#23598a84ca)"><path fill="#000000" d="M 184.792969 327.980469 C 107.101562 327.980469 44.167969 264.613281 44.167969 187.355469 C 44.167969 110.101562 107.101562 46.730469 184.792969 46.730469 C 262.484375 46.730469 325.417969 109.664062 325.417969 187.355469 C 325.417969 265.046875 262.050781 327.980469 184.792969 327.980469 Z M 184.792969 55.414062 C 111.875 55.414062 52.847656 114.441406 52.847656 187.355469 C 52.847656 260.273438 111.875 319.300781 184.792969 319.300781 C 257.710938 319.300781 316.738281 260.273438 316.738281 187.355469 C 316.738281 114.441406 257.273438 55.414062 184.792969 55.414062 Z M 184.792969 55.414062 " fill-opacity="1" fill-rule="nonzero"/></g><g clip-path="url(#c40d5d5e20)"><path fill="#000000" d="M 153.90625 151.019531 C 153.824219 149.453125 153.640625 148.84375 154.140625 147.785156 C 155.015625 145.945312 156.945312 144.515625 157.765625 144.65625 C 159.050781 144.878906 158.9375 145.714844 159.945312 146.777344 C 160.953125 147.835938 162.574219 150.40625 162.574219 150.40625 Z M 153.90625 151.019531 " fill-opacity="1" fill-rule="nonzero"/></g><g clip-path="url(#71a278300f)"><path stroke-linecap="butt" transform="matrix(0.156583, 0, 0, 0.156283, 119.289913, 109.9038)" fill="none" stroke-linejoin="miter" d="M 221.072812 263.085868 C 220.54893 253.062956 219.376432 249.163768 222.569618 242.39018 C 228.157694 230.617632 240.481397 221.469538 245.720218 222.369351 C 253.927704 223.794054 253.204248 229.14294 259.640514 235.941523 C 266.07678 242.715112 276.429688 259.161685 276.429688 259.161685 Z M 221.072812 263.085868 " stroke="#000000" stroke-width="1" stroke-opacity="1" stroke-miterlimit="4"/></g><path stroke-linecap="butt" transform="matrix(0.156583, 0, 0, 0.156283, 119.289913, 109.9038)" fill-opacity="1" fill="#000000" fill-rule="nonzero" stroke-linejoin="miter" d="M 57.147608 243.789888 C 57.147608 243.789888 63.583874 318.79926 49.289377 418.078576 C 36.06759 510.034418 29.28207 505.235417 27.136648 536.653872 C 24.991226 568.072326 29.28207 619.511609 29.28207 619.511609 C 29.28207 619.511609 350.721159 626.660119 439.282181 621.661161 C 527.86815 616.662202 740.713964 580.219795 740.713964 580.219795 C 740.713964 580.219795 739.291998 553.07545 710.004494 538.078575 C 680.71699 523.081699 623.563947 518.082741 590.010546 505.935272 C 556.432198 493.787802 455.722101 469.517859 403.583358 403.0817 C 351.419669 336.645542 304.769215 258.511821 282.142497 248.063997 C 261.237107 250.888409 217.131223 253.787805 161.425093 252.363102 C 105.718963 250.938399 57.147608 243.789888 57.147608 243.789888 Z M 57.147608 243.789888 " stroke="#000000" stroke-width="1" stroke-opacity="1" stroke-miterlimit="4"/><path stroke-linecap="butt" transform="matrix(0.156583, 0, 0, 0.156283, 119.961033, 110.015383)" fill-opacity="1" fill="#ffffff" fill-rule="nonzero" stroke-linejoin="miter" d="M 236.419901 407.716602 C 236.419901 447.75826 202.841553 480.226495 161.42992 480.226495 C 120.018287 480.226495 86.439939 447.75826 86.439939 407.716602 C 86.439939 367.674945 120.018287 335.231704 161.42992 335.231704 C 202.841553 335.231704 236.419901 367.674945 236.419901 407.716602 Z M 236.419901 407.716602 " stroke="#d8d8d8" stroke-width="1" stroke-opacity="1" stroke-miterlimit="4"/><path stroke-linecap="butt" transform="matrix(0.0242501, 0, 0, 0.0234986, 162.328441, 190.186144)" fill="none" stroke-linejoin="miter" d="M 236.455303 407.660937 C 236.455303 447.723083 202.789171 480.138512 161.391104 480.138512 C 119.993037 480.138512 86.487987 447.723083 86.487987 407.660937 C 86.487987 367.598791 119.993037 335.183362 161.391104 335.183362 C 202.789171 335.183362 236.455303 367.598791 236.455303 407.660937 Z M 236.455303 407.660937 " stroke="#ffffff" stroke-width="48.764999" stroke-opacity="1" stroke-miterlimit="4"/><path stroke-linecap="butt" transform="matrix(0.0242501, 0, 0, 0.0234986, 175.10094, 189.997048)" fill="none" stroke-linejoin="miter" d="M 236.493997 407.728855 C 236.493997 447.791001 202.827865 480.206431 161.429798 480.206431 C 120.031731 480.206431 86.365599 447.791001 86.365599 407.728855 C 86.365599 367.666709 120.031731 335.25128 161.429798 335.25128 C 202.827865 335.25128 236.493997 367.666709 236.493997 407.728855 Z M 236.493997 407.728855 " stroke="#ffffff" stroke-width="48.764999" stroke-opacity="1" stroke-miterlimit="4"/><path stroke-linecap="butt" transform="matrix(0.0234311, 0.0140217, -0.0107808, 0.019354, 165.088998, 145.60811)" fill="none" stroke-linejoin="miter" d="M 236.433086 407.625841 C 236.414192 447.803967 202.815338 480.219025 161.429573 480.129446 C 119.988421 480.281825 86.344112 447.740121 86.432652 407.713369 C 86.396159 367.777201 119.925366 335.210769 161.436165 335.209764 C 202.821931 335.299343 236.396593 367.689674 236.433086 407.625841 Z M 236.433086 407.625841 " stroke="#ffffff" stroke-width="48.766998" stroke-opacity="1" stroke-miterlimit="4"/><path stroke-linecap="butt" transform="matrix(0.0234311, 0.0140217, -0.0107808, 0.019354, 170.121586, 154.705317)" fill="none" stroke-linejoin="miter" d="M 236.39826 407.674305 C 236.504401 447.761845 202.905546 480.176904 161.394747 480.177909 C 120.078629 480.239703 86.43432 447.698 86.397827 407.761832 C 86.486368 367.73508 120.015574 335.168648 161.40134 335.258227 C 202.912139 335.257222 236.486801 367.647552 236.39826 407.674305 Z M 236.39826 407.674305 " stroke="#ffffff" stroke-width="48.766998" stroke-opacity="1" stroke-miterlimit="4"/><path stroke-linecap="butt" transform="matrix(0.0234311, 0.0140217, -0.0107808, 0.019354, 175.713187, 162.966404)" fill="none" stroke-linejoin="miter" d="M 236.478295 407.648939 C 236.459402 447.827064 202.860547 480.242123 161.474782 480.152544 C 119.963983 480.153549 86.389321 447.763219 86.477862 407.736466 C 86.371721 367.648926 119.970576 335.233867 161.481375 335.232862 C 202.797493 335.171068 236.441802 367.712771 236.478295 407.648939 Z M 236.478295 407.648939 " stroke="#ffffff" stroke-width="48.766998" stroke-opacity="1" stroke-miterlimit="4"/><path stroke-linecap="butt" transform="matrix(0.0233435, 0.0144124, -0.0107401, 0.0198916, 183.092952, 169.995999)" fill="none" stroke-linejoin="miter" d="M 236.503395 407.761632 C 236.453872 447.661926 202.904408 480.217807 161.412453 480.234972 C 120.046 480.161206 86.406652 447.781617 86.388414 407.734043 C 86.370175 367.686469 119.987401 335.277868 161.479356 335.260702 C 202.778047 335.187189 236.485156 367.714057 236.503395 407.761632 Z M 236.503395 407.761632 " stroke="#ffffff" stroke-width="48.766998" stroke-opacity="1" stroke-miterlimit="4"/><path stroke-linecap="butt" transform="matrix(0.0254965, 0.0101474, -0.00711672, 0.0214513, 189.813522, 175.284598)" fill="none" stroke-linejoin="miter" d="M 236.475381 407.688804 C 236.473675 447.751203 202.800348 480.251094 161.410013 480.163938 C 120.064578 480.23764 86.467226 447.692554 86.468933 407.630154 C 86.51554 367.728614 120.008629 335.131885 161.398964 335.219041 C 202.924636 335.242177 236.477088 367.626405 236.475381 407.688804 Z M 236.475381 407.688804 " stroke="#ffffff" stroke-width="48.766998" stroke-opacity="1" stroke-miterlimit="4"/><path stroke-linecap="butt" transform="matrix(0.0249093, 0.00824547, -0.0069523, 0.0174302, 199.191291, 180.948283)" fill="none" stroke-linejoin="miter" d="M 236.426296 407.693561 C 236.481283 447.782926 202.890295 480.257376 161.456334 480.13646 C 120.077628 480.213515 86.393685 447.740546 86.338698 407.651181 C 86.477494 367.694254 120.068482 335.219803 161.447188 335.142749 C 202.881149 335.263665 236.371309 367.604196 236.426296 407.693561 Z M 236.426296 407.693561 " stroke="#ffffff" stroke-width="48.766998" stroke-opacity="1" stroke-miterlimit="4"/><path stroke-linecap="butt" transform="matrix(0.0249093, 0.00824547, -0.0069523, 0.0174302, 208.5863, 183.437858)" fill="none" stroke-linejoin="miter" d="M 236.391081 407.635992 C 236.446069 447.725357 202.85508 480.199808 161.476374 480.276862 C 120.042414 480.155946 86.358471 447.682977 86.497267 407.72605 C 86.44228 367.636686 120.033268 335.162235 161.467228 335.283151 C 202.845934 335.206097 236.391349 367.744598 236.391081 407.635992 Z M 236.391081 407.635992 " stroke="#ffffff" stroke-width="48.766998" stroke-opacity="1" stroke-miterlimit="4"/><path stroke-linecap="butt" transform="matrix(0.0259662, 0.00346166, -0.00381437, 0.0167254, 216.844502, 186.626033)" fill="none" stroke-linejoin="miter" d="M 236.490464 407.82049 C 236.490192 447.758035 202.890218 480.169475 161.363096 480.122927 C 120.015268 480.272823 86.356826 447.768751 86.503096 407.800988 C 86.470073 367.636782 120.070047 335.225342 161.451171 335.302107 C 202.799 335.15221 236.457441 367.656283 236.490464 407.82049 Z M 236.490464 407.82049 " stroke="#ffffff" stroke-width="48.766998" stroke-opacity="1" stroke-miterlimit="4"/><path fill="#ffffff" d="M 245.574219 196.816406 C 244.566406 194.917969 243.167969 193.417969 241.203125 192.9375 C 237.128906 191.933594 229.289062 192.628906 226.886719 192.90625 C 224.480469 193.1875 231.890625 198.964844 234.828125 200.636719 C 236.878906 199.792969 244.304688 198.492188 245.574219 196.816406 Z M 245.574219 196.816406 " fill-opacity="1" fill-rule="nonzero"/><g clip-path="url(#9b05b6c2bd)"><path stroke-linecap="butt" transform="matrix(0.156583, 0, 0, 0.156283, 119.289913, 109.9038)" fill="none" stroke-linejoin="miter" d="M 806.498588 556.124815 C 800.062322 543.977346 791.13138 534.379345 778.583156 531.304986 C 752.563678 524.881324 702.495517 529.330397 687.153256 531.105028 C 671.786047 532.904653 719.110064 569.871951 737.870033 580.569722 C 750.967085 575.170847 798.390889 566.847581 806.498588 556.124815 Z M 806.498588 556.124815 " stroke="#000000" stroke-width="5" stroke-opacity="1" stroke-miterlimit="4"/></g><g clip-path="url(#426cc104ef)"><path stroke-linecap="butt" transform="matrix(0.156583, 0, 0, 0.156283, 119.289913, 109.9038)" fill-opacity="1" fill="#ffffff" fill-rule="nonzero" stroke-linejoin="round" d="M 21.09953 602.640124 C 21.09953 602.640124 222.444885 610.688447 365.539539 608.663869 C 507.386855 606.664285 731.358926 583.694071 807.147204 548.076492 C 809.467253 554.925065 817.699686 561.398716 820.568564 569.322065 C 823.986271 578.720107 833.515936 616.487239 827.803127 630.78426 C 822.090317 645.056287 728.564889 668.17647 657.142295 679.59909 C 585.719702 691.02171 489.899171 691.096694 414.210681 691.096694 C 338.497244 691.096694 174.197838 699.99484 111.356932 697.995257 C 48.366346 695.970679 29.43175 690.671783 17.232781 680.848829 C 15.31188 663.152516 21.09953 602.640124 21.09953 602.640124 Z M 21.09953 602.640124 " stroke="#000000" stroke-width="5" stroke-opacity="1" stroke-miterlimit="4"/></g><g clip-path="url(#afdd984001)"><path stroke-linecap="butt" transform="matrix(0.156583, 0, 0, 0.156283, 119.289913, 109.9038)" fill="none" stroke-linejoin="miter" d="M 605.702062 590.567639 C 613.211039 620.936312 621.792727 662.002756 623.913202 684.872991 " stroke="#000000" stroke-width="6" stroke-opacity="1" stroke-miterlimit="4"/></g><g clip-path="url(#2da3d7f3ff)"><path stroke-linecap="butt" transform="matrix(0.156583, 0, 0, 0.156283, 119.289913, 109.9038)" fill="none" stroke-linejoin="miter" d="M 20.725329 614.51265 L 35.369081 617.012129 L 34.645624 689.147101 " stroke="#000000" stroke-width="5" stroke-opacity="1" stroke-miterlimit="4"/></g><g clip-path="url(#90a480c0d6)"><path stroke-linecap="butt" transform="matrix(0.156583, 0, 0, 0.156283, 119.289913, 109.9038)" fill="none" stroke-linejoin="miter" d="M 34.645624 660.578053 C 34.645624 660.578053 51.010703 667.001714 77.279649 667.50161 C 103.548594 668.001506 235.36731 664.502235 275.756125 664.47724 C 311.629576 664.452246 440.404786 662.577636 488.9013 660.428084 C 541.414244 658.103568 619.22321 649.305401 619.22321 649.305401 " stroke="#000000" stroke-width="8" stroke-opacity="1" stroke-miterlimit="4"/></g><path stroke-linecap="round" transform="matrix(0.156583, 0, 0, 0.156283, 119.289913, 109.9038)" fill="none" stroke-linejoin="miter" d="M 234.369439 256.062331 C 269.993422 313.450375 277.701973 364.789678 328.743058 422.177722 C 379.784143 479.540771 421.195775 514.783428 491.495764 532.904653 C 561.795753 551.025877 714.919007 570.146893 714.919007 570.146893 " stroke="#ffffff" stroke-width="4.874" stroke-opacity="1" stroke-miterlimit="4"/><path stroke-linecap="butt" transform="matrix(0.156583, 0, 0, 0.156283, 119.289913, 109.9038)" fill-opacity="1" fill="#ffffff" fill-rule="nonzero" stroke-linejoin="round" d="M 285.709885 289.055457 C 287.406265 294.154395 288.503923 295.054207 290.30009 298.003593 C 312.951754 296.878827 315.621058 288.005676 330.564172 287.955686 C 329.790822 283.156686 322.581206 271.434128 316.544089 268.359769 C 300.054276 272.408925 296.86109 275.933191 285.709885 289.055457 Z M 285.709885 289.055457 " stroke="#000000" stroke-width="3" stroke-opacity="1" stroke-miterlimit="4"/><path stroke-linecap="butt" transform="matrix(0.156583, 0, 0, 0.156283, 119.289913, 109.9038)" fill-opacity="1" fill="#ffffff" fill-rule="nonzero" stroke-linejoin="round" d="M 317.167758 346.868412 C 318.864138 351.96735 320.93472 352.767183 322.730887 355.741564 C 345.382551 354.616798 348.151642 346.893407 363.094756 346.843417 C 362.296459 342.044417 355.11179 330.32186 349.049726 327.2475 C 332.58486 331.321651 328.318963 333.746146 317.167758 346.868412 Z M 317.167758 346.868412 " stroke="#000000" stroke-width="3" stroke-opacity="1" stroke-miterlimit="4"/><path stroke-linecap="butt" transform="matrix(0.156583, 0, 0, 0.156283, 119.289913, 109.9038)" fill-opacity="1" fill="#ffffff" fill-rule="nonzero" stroke-linejoin="round" d="M 355.860193 398.607633 C 357.556573 403.70657 356.883011 405.656164 358.679178 408.630544 C 377.214626 394.10857 386.320195 393.458705 398.394431 384.46058 C 397.621081 379.66158 391.134921 370.813423 385.097804 367.714069 C 368.607991 371.78822 367.011398 385.485367 355.860193 398.607633 Z M 355.860193 398.607633 " stroke="#000000" stroke-width="3" stroke-opacity="1" stroke-miterlimit="4"/><path stroke-linecap="butt" transform="matrix(0.156583, 0, 0, 0.156283, 119.289913, 109.9038)" fill-opacity="1" fill="#ffffff" fill-rule="nonzero" stroke-linejoin="round" d="M 400.315332 446.347686 C 402.011712 451.421629 403.134316 452.321442 404.905537 455.295822 C 421.61987 451.621587 432.771075 436.699696 440.554466 432.175639 C 439.781117 427.351644 433.095383 422.527649 427.033319 419.45329 C 410.568453 423.502446 399.991024 438.524316 400.315332 446.347686 Z M 400.315332 446.347686 " stroke="#000000" stroke-width="3" stroke-opacity="1" stroke-miterlimit="4"/><path stroke-linecap="butt" transform="matrix(0.156583, 0, 0, 0.156283, 119.289913, 109.9038)" fill-opacity="1" fill="#ffffff" fill-rule="nonzero" stroke-linejoin="round" d="M 453.501838 481.115443 C 455.198218 486.189386 457.418481 486.664287 462.357941 487.739063 C 477.974616 478.690948 477.999563 467.818213 480.968229 459.070036 C 480.169932 454.271036 468.669472 451.846541 462.632355 448.772181 C 457.393534 461.219588 458.141937 472.142312 453.501838 481.115443 Z M 453.501838 481.115443 " stroke="#000000" stroke-width="3" stroke-opacity="1" stroke-miterlimit="4"/><path stroke-linecap="butt" transform="matrix(0.156583, 0, 0, 0.156283, 119.289913, 109.9038)" fill-opacity="1" fill="#ffffff" fill-rule="nonzero" stroke-linejoin="round" d="M 511.827379 506.560141 C 515.544447 508.734688 519.960025 509.78447 524.824644 510.009423 C 529.090542 497.287073 530.437667 486.814255 530.238093 477.591177 C 527.86815 473.342062 516.342744 469.817796 509.607117 468.992968 C 513.997748 479.340812 513.149558 496.512235 511.827379 506.560141 Z M 511.827379 506.560141 " stroke="#000000" stroke-width="3" stroke-opacity="1" stroke-miterlimit="4"/><path stroke-linecap="butt" transform="matrix(0.156583, 0, 0, 0.156283, 119.289913, 109.9038)" fill-opacity="1" fill="#ffffff" fill-rule="nonzero" stroke-linejoin="round" d="M 572.922011 522.906736 C 576.93844 526.480991 579.358277 527.280824 584.173003 525.731147 C 590.783896 516.033168 587.241455 504.585553 583.449546 499.311652 C 580.356147 495.537438 573.221372 493.762808 566.435851 494.13773 C 567.134361 503.73573 569.579144 512.683866 572.922011 522.906736 Z M 572.922011 522.906736 " stroke="#000000" stroke-width="3" stroke-opacity="1" stroke-miterlimit="4"/><path stroke-linecap="butt" transform="matrix(0.156583, 0, 0, 0.156283, 119.289913, 109.9038)" fill-opacity="1" fill="#ffffff" fill-rule="nonzero" stroke-linejoin="round" d="M 634.490631 536.728856 C 638.507061 540.278116 640.677429 539.578262 645.492155 538.028585 C 651.479379 530.730106 650.581296 526.106069 648.036725 519.057538 C 644.968273 515.308319 632.769304 512.508902 625.983784 512.858829 C 627.181228 518.457663 634.041589 526.63096 634.490631 536.728856 Z M 634.490631 536.728856 " stroke="#000000" stroke-width="3" stroke-opacity="1" stroke-miterlimit="4"/><g fill="#ffffff" fill-opacity="1"><g transform="translate(95.498015, 148.094365)"><g><path d="M 3.5 -11.359375 L 0.84375 -6.609375 L 2.609375 -4.703125 L 0 0 L -11.359375 -13.15625 L -8.5 -18.3125 L 8.65625 -15.578125 L 6.046875 -10.875 Z M -0.46875 -12.125 L -5.15625 -13.0625 L -1.90625 -9.546875 Z M -0.46875 -12.125 "/></g></g></g><g fill="#ffffff" fill-opacity="1"><g transform="translate(103.804143, 133.018201)"><g><path d="M 10.640625 -13.015625 L 7.390625 -9.046875 L -2.390625 -10.046875 L 3.96875 -4.859375 L 0.734375 -0.890625 L -11.90625 -11.21875 L -8.671875 -15.1875 L 1.203125 -14.09375 L -5.25 -19.375 L -2 -23.34375 Z M 10.640625 -13.015625 "/></g></g></g><g fill="#ffffff" fill-opacity="1"><g transform="translate(114.781018, 119.56106)"><g><path d="M -4.625 -17.546875 C -3.332031 -18.660156 -1.972656 -19.378906 -0.546875 -19.703125 C 0.867188 -20.023438 2.238281 -19.941406 3.5625 -19.453125 C 4.894531 -18.972656 6.070312 -18.140625 7.09375 -16.953125 C 8.101562 -15.773438 8.753906 -14.488281 9.046875 -13.09375 C 9.347656 -11.707031 9.242188 -10.320312 8.734375 -8.9375 C 8.222656 -7.550781 7.320312 -6.300781 6.03125 -5.1875 L 0.875 -0.75 L -9.78125 -13.109375 Z M 2.703125 -8.34375 C 3.566406 -9.09375 4.046875 -9.925781 4.140625 -10.84375 C 4.242188 -11.769531 3.914062 -12.675781 3.15625 -13.5625 C 2.382812 -14.445312 1.535156 -14.90625 0.609375 -14.9375 C -0.304688 -14.976562 -1.195312 -14.625 -2.0625 -13.875 L -3 -13.078125 L 1.765625 -7.546875 Z M 2.703125 -8.34375 "/></g></g></g><g fill="#ffffff" fill-opacity="1"><g transform="translate(127.314101, 108.710094)"><g><path d="M 5.96875 -22.671875 L 6.84375 -9.90625 L 9.40625 -5.671875 L 5.015625 -3.03125 L 2.453125 -7.265625 L -8.4375 -13.984375 L -3.421875 -17.015625 L 1.796875 -13.40625 L 1.03125 -19.703125 Z M 5.96875 -22.671875 "/></g></g></g><g fill="#ffffff" fill-opacity="1"><g transform="translate(141.811098, 100.358949)"><g/></g></g><g fill="#ffffff" fill-opacity="1"><g transform="translate(145.268081, 98.474664)"><g><path d="M 7.15625 -2.390625 C 5.3125 -1.734375 3.640625 -1.617188 2.140625 -2.046875 C 0.648438 -2.472656 -0.441406 -3.507812 -1.140625 -5.15625 L 3.984375 -6.984375 C 4.367188 -6.117188 4.914062 -5.8125 5.625 -6.0625 C 5.882812 -6.15625 6.082031 -6.296875 6.21875 -6.484375 C 6.351562 -6.671875 6.375 -6.898438 6.28125 -7.171875 C 6.15625 -7.535156 5.859375 -7.753906 5.390625 -7.828125 C 4.921875 -7.910156 4.222656 -7.953125 3.296875 -7.953125 C 2.179688 -7.941406 1.238281 -7.988281 0.46875 -8.09375 C -0.289062 -8.195312 -1.007812 -8.484375 -1.6875 -8.953125 C -2.375 -9.429688 -2.898438 -10.175781 -3.265625 -11.1875 C -3.617188 -12.1875 -3.660156 -13.128906 -3.390625 -14.015625 C -3.128906 -14.898438 -2.613281 -15.679688 -1.84375 -16.359375 C -1.082031 -17.035156 -0.148438 -17.570312 0.953125 -17.96875 C 2.835938 -18.632812 4.488281 -18.734375 5.90625 -18.265625 C 7.332031 -17.796875 8.359375 -16.78125 8.984375 -15.21875 L 3.78125 -13.375 C 3.613281 -13.789062 3.394531 -14.054688 3.125 -14.171875 C 2.851562 -14.285156 2.570312 -14.296875 2.28125 -14.203125 C 2.082031 -14.128906 1.941406 -14 1.859375 -13.8125 C 1.785156 -13.632812 1.789062 -13.421875 1.875 -13.171875 C 2 -12.828125 2.289062 -12.609375 2.75 -12.515625 C 3.21875 -12.429688 3.925781 -12.382812 4.875 -12.375 C 5.96875 -12.351562 6.890625 -12.285156 7.640625 -12.171875 C 8.390625 -12.066406 9.101562 -11.800781 9.78125 -11.375 C 10.457031 -10.945312 10.957031 -10.28125 11.28125 -9.375 C 11.613281 -8.4375 11.679688 -7.507812 11.484375 -6.59375 C 11.285156 -5.6875 10.816406 -4.867188 10.078125 -4.140625 C 9.347656 -3.410156 8.375 -2.828125 7.15625 -2.390625 Z M 7.15625 -2.390625 "/></g></g></g><g fill="#ffffff" fill-opacity="1"><g transform="translate(158.347135, 93.646747)"><g><path d="M 13.015625 -19.015625 L 16 -2.96875 L 10.953125 -2.03125 L 9.796875 -8.28125 L 5 -7.390625 L 6.15625 -1.140625 L 1.140625 -0.21875 L -1.84375 -16.265625 L 3.171875 -17.1875 L 4.25 -11.421875 L 9.046875 -12.3125 L 7.96875 -18.078125 Z M 13.015625 -19.015625 "/></g></g></g><g fill="#ffffff" fill-opacity="1"><g transform="translate(174.853124, 90.493788)"><g><path d="M 9.109375 0.09375 C 7.566406 0.101562 6.148438 -0.242188 4.859375 -0.953125 C 3.578125 -1.660156 2.550781 -2.648438 1.78125 -3.921875 C 1.019531 -5.191406 0.632812 -6.628906 0.625 -8.234375 C 0.613281 -9.828125 0.984375 -11.265625 1.734375 -12.546875 C 2.484375 -13.828125 3.492188 -14.832031 4.765625 -15.5625 C 6.046875 -16.289062 7.457031 -16.660156 9 -16.671875 C 10.539062 -16.679688 11.953125 -16.332031 13.234375 -15.625 C 14.515625 -14.914062 15.53125 -13.925781 16.28125 -12.65625 C 17.03125 -11.382812 17.410156 -9.953125 17.421875 -8.359375 C 17.429688 -6.753906 17.066406 -5.3125 16.328125 -4.03125 C 15.597656 -2.75 14.59375 -1.742188 13.3125 -1.015625 C 12.03125 -0.285156 10.628906 0.0820312 9.109375 0.09375 Z M 9.078125 -4.671875 C 10.085938 -4.679688 10.867188 -5.015625 11.421875 -5.671875 C 11.972656 -6.328125 12.242188 -7.207031 12.234375 -8.3125 C 12.234375 -9.4375 11.953125 -10.320312 11.390625 -10.96875 C 10.828125 -11.625 10.039062 -11.945312 9.03125 -11.9375 C 8 -11.925781 7.207031 -11.59375 6.65625 -10.9375 C 6.113281 -10.289062 5.84375 -9.40625 5.84375 -8.28125 C 5.851562 -7.175781 6.132812 -6.296875 6.6875 -5.640625 C 7.25 -4.984375 8.046875 -4.660156 9.078125 -4.671875 Z M 9.078125 -4.671875 "/></g></g></g><g fill="#ffffff" fill-opacity="1"><g transform="translate(192.556547, 90.541874)"><g><path d="M 8 -11.1875 L 7.703125 -9.203125 L 12.71875 -8.453125 L 12.15625 -4.65625 L 7.140625 -5.40625 L 6.796875 -3.109375 L 12.5 -2.265625 L 11.90625 1.765625 L 1.140625 0.171875 L 3.546875 -15.984375 L 14.3125 -14.390625 L 13.703125 -10.34375 Z M 8 -11.1875 "/></g></g></g><g fill="#ffffff" fill-opacity="1"><g transform="translate(204.935102, 92.306385)"><g><path d="M 7.203125 2.28125 C 5.316406 1.726562 3.894531 0.835938 2.9375 -0.390625 C 1.976562 -1.617188 1.691406 -3.101562 2.078125 -4.84375 L 7.3125 -3.3125 C 7.125 -2.394531 7.390625 -1.828125 8.109375 -1.609375 C 8.378906 -1.535156 8.625 -1.53125 8.84375 -1.59375 C 9.070312 -1.664062 9.222656 -1.835938 9.296875 -2.109375 C 9.410156 -2.484375 9.296875 -2.84375 8.953125 -3.1875 C 8.617188 -3.53125 8.078125 -3.972656 7.328125 -4.515625 C 6.429688 -5.148438 5.703125 -5.734375 5.140625 -6.265625 C 4.578125 -6.804688 4.15625 -7.46875 3.875 -8.25 C 3.59375 -9.039062 3.609375 -9.945312 3.921875 -10.96875 C 4.222656 -11.988281 4.738281 -12.773438 5.46875 -13.328125 C 6.207031 -13.890625 7.082031 -14.222656 8.09375 -14.328125 C 9.113281 -14.429688 10.1875 -14.316406 11.3125 -13.984375 C 13.226562 -13.421875 14.625 -12.53125 15.5 -11.3125 C 16.375 -10.101562 16.609375 -8.6875 16.203125 -7.0625 L 10.90625 -8.609375 C 11.019531 -9.054688 11 -9.40625 10.84375 -9.65625 C 10.695312 -9.90625 10.476562 -10.078125 10.1875 -10.171875 C 9.976562 -10.222656 9.785156 -10.195312 9.609375 -10.09375 C 9.441406 -10 9.320312 -9.828125 9.25 -9.578125 C 9.144531 -9.222656 9.253906 -8.875 9.578125 -8.53125 C 9.898438 -8.1875 10.4375 -7.726562 11.1875 -7.15625 C 12.082031 -6.5 12.800781 -5.90625 13.34375 -5.375 C 13.882812 -4.84375 14.300781 -4.207031 14.59375 -3.46875 C 14.894531 -2.726562 14.910156 -1.898438 14.640625 -0.984375 C 14.359375 -0.0234375 13.867188 0.765625 13.171875 1.390625 C 12.472656 2.015625 11.613281 2.40625 10.59375 2.5625 C 9.570312 2.726562 8.441406 2.632812 7.203125 2.28125 Z M 7.203125 2.28125 "/></g></g></g><g fill="#ffffff" fill-opacity="1"><g transform="translate(218.685566, 96.588765)"><g/></g></g><g fill="#ffffff" fill-opacity="1"><g transform="translate(222.428773, 97.810538)"><g><path d="M 6.640625 3.578125 C 4.898438 2.691406 3.671875 1.550781 2.953125 0.15625 C 2.242188 -1.226562 2.242188 -2.734375 2.953125 -4.359375 L 7.8125 -1.875 C 7.445312 -1.007812 7.597656 -0.40625 8.265625 -0.0625 C 8.515625 0.0625 8.753906 0.109375 8.984375 0.078125 C 9.210938 0.0546875 9.390625 -0.078125 9.515625 -0.328125 C 9.691406 -0.671875 9.648438 -1.039062 9.390625 -1.4375 C 9.128906 -1.832031 8.675781 -2.375 8.03125 -3.0625 C 7.269531 -3.851562 6.664062 -4.566406 6.21875 -5.203125 C 5.769531 -5.835938 5.484375 -6.5625 5.359375 -7.375 C 5.234375 -8.195312 5.414062 -9.082031 5.90625 -10.03125 C 6.394531 -10.976562 7.050781 -11.65625 7.875 -12.0625 C 8.707031 -12.476562 9.632812 -12.640625 10.65625 -12.546875 C 11.675781 -12.460938 12.707031 -12.15625 13.75 -11.625 C 15.53125 -10.707031 16.734375 -9.570312 17.359375 -8.21875 C 17.984375 -6.863281 17.945312 -5.421875 17.25 -3.890625 L 12.328125 -6.40625 C 12.523438 -6.820312 12.570312 -7.164062 12.46875 -7.4375 C 12.363281 -7.71875 12.175781 -7.925781 11.90625 -8.0625 C 11.71875 -8.164062 11.523438 -8.179688 11.328125 -8.109375 C 11.140625 -8.035156 10.988281 -7.882812 10.875 -7.65625 C 10.707031 -7.332031 10.75 -6.972656 11 -6.578125 C 11.257812 -6.179688 11.707031 -5.628906 12.34375 -4.921875 C 13.082031 -4.117188 13.664062 -3.40625 14.09375 -2.78125 C 14.53125 -2.15625 14.820312 -1.445312 14.96875 -0.65625 C 15.125 0.125 14.984375 0.941406 14.546875 1.796875 C 14.097656 2.679688 13.472656 3.363281 12.671875 3.84375 C 11.867188 4.320312 10.945312 4.546875 9.90625 4.515625 C 8.875 4.484375 7.785156 4.171875 6.640625 3.578125 Z M 6.640625 3.578125 "/></g></g></g><g fill="#ffffff" fill-opacity="1"><g transform="translate(234.934704, 104.196581)"><g><path d="M 20.84375 -5.234375 L 18.484375 -1.921875 L 14.953125 -4.421875 L 7.859375 5.578125 L 3.6875 2.609375 L 10.78125 -7.390625 L 7.28125 -9.859375 L 9.640625 -13.171875 Z M 20.84375 -5.234375 "/></g></g></g><g fill="#ffffff" fill-opacity="1"><g transform="translate(246.239426, 111.969394)"><g><path d="M 6.375 6.5 C 5.28125 5.414062 4.53125 4.171875 4.125 2.765625 C 3.71875 1.359375 3.691406 -0.0625 4.046875 -1.5 C 4.398438 -2.945312 5.140625 -4.238281 6.265625 -5.375 C 7.378906 -6.507812 8.65625 -7.265625 10.09375 -7.640625 C 11.53125 -8.023438 12.957031 -8.023438 14.375 -7.640625 C 15.789062 -7.253906 17.046875 -6.519531 18.140625 -5.4375 C 19.242188 -4.351562 19.992188 -3.109375 20.390625 -1.703125 C 20.796875 -0.296875 20.816406 1.125 20.453125 2.5625 C 20.085938 4 19.347656 5.285156 18.234375 6.421875 C 17.109375 7.554688 15.832031 8.316406 14.40625 8.703125 C 12.976562 9.085938 11.550781 9.082031 10.125 8.6875 C 8.707031 8.300781 7.457031 7.570312 6.375 6.5 Z M 9.71875 3.109375 C 10.4375 3.816406 11.222656 4.128906 12.078125 4.046875 C 12.941406 3.972656 13.757812 3.546875 14.53125 2.765625 C 15.320312 1.960938 15.75 1.132812 15.8125 0.28125 C 15.875 -0.570312 15.546875 -1.351562 14.828125 -2.0625 C 14.097656 -2.78125 13.304688 -3.101562 12.453125 -3.03125 C 11.597656 -2.957031 10.773438 -2.519531 9.984375 -1.71875 C 9.210938 -0.9375 8.789062 -0.117188 8.71875 0.734375 C 8.65625 1.597656 8.988281 2.390625 9.71875 3.109375 Z M 9.71875 3.109375 "/></g></g></g><g fill="#ffffff" fill-opacity="1"><g transform="translate(258.740652, 124.384681)"><g><path d="M 5.484375 7.59375 L 8.4375 1.671875 L 8.421875 1.640625 L 3.671875 5.078125 L 0.671875 0.9375 L 13.90625 -8.625 L 18.359375 -2.453125 C 19.140625 -1.378906 19.613281 -0.328125 19.78125 0.703125 C 19.945312 1.742188 19.84375 2.691406 19.46875 3.546875 C 19.09375 4.398438 18.492188 5.125 17.671875 5.71875 C 16.785156 6.351562 15.816406 6.671875 14.765625 6.671875 C 13.722656 6.671875 12.71875 6.316406 11.75 5.609375 L 8.765625 12.15625 Z M 11.1875 -0.34375 L 12.375 1.3125 C 12.664062 1.707031 12.972656 1.941406 13.296875 2.015625 C 13.617188 2.085938 13.972656 1.984375 14.359375 1.703125 C 14.703125 1.453125 14.898438 1.148438 14.953125 0.796875 C 15.003906 0.441406 14.890625 0.0703125 14.609375 -0.3125 L 13.421875 -1.96875 Z M 11.1875 -0.34375 "/></g></g></g><g fill="#ffffff" fill-opacity="1"><g transform="translate(267.51577, 136.656703)"><g><path d="M 13.75 -0.140625 L 11.96875 0.78125 L 14.34375 5.28125 L 10.9375 7.078125 L 8.5625 2.578125 L 6.515625 3.65625 L 9.203125 8.765625 L 5.59375 10.65625 L 0.53125 1.03125 L 14.984375 -6.5625 L 20.046875 3.0625 L 16.4375 4.96875 Z M 13.75 -0.140625 "/></g></g></g><g fill="#ffffff" fill-opacity="1"><g transform="translate(71.031128, 203.976701)"><g><path d="M 3.421875 3.65625 L 4.21875 7.296875 L 1.71875 7.84375 L 0.203125 0.9375 L 11.953125 -1.625 L 12.671875 1.640625 Z M 3.421875 3.65625 "/></g></g></g><g fill="#ffffff" fill-opacity="1"><g transform="translate(72.9825, 213.248391)"><g><path d="M 1.984375 6.421875 C 1.628906 5.359375 1.554688 4.289062 1.765625 3.21875 C 1.972656 2.15625 2.4375 1.210938 3.15625 0.390625 C 3.875 -0.421875 4.796875 -1.015625 5.921875 -1.390625 C 7.046875 -1.753906 8.140625 -1.820312 9.203125 -1.59375 C 10.265625 -1.363281 11.191406 -0.882812 11.984375 -0.15625 C 12.773438 0.570312 13.347656 1.46875 13.703125 2.53125 C 14.054688 3.613281 14.132812 4.6875 13.9375 5.75 C 13.738281 6.8125 13.28125 7.742188 12.5625 8.546875 C 11.84375 9.359375 10.921875 9.945312 9.796875 10.3125 C 8.671875 10.6875 7.578125 10.765625 6.515625 10.546875 C 5.453125 10.328125 4.519531 9.851562 3.71875 9.125 C 2.914062 8.394531 2.335938 7.492188 1.984375 6.421875 Z M 4.9375 5.4375 C 5.207031 6.25 5.6875 6.800781 6.375 7.09375 C 7.0625 7.382812 7.847656 7.382812 8.734375 7.09375 C 9.640625 6.800781 10.273438 6.332031 10.640625 5.6875 C 11.003906 5.039062 11.050781 4.3125 10.78125 3.5 C 10.507812 2.675781 10.035156 2.117188 9.359375 1.828125 C 8.679688 1.546875 7.890625 1.550781 6.984375 1.84375 C 6.085938 2.144531 5.453125 2.613281 5.078125 3.25 C 4.710938 3.882812 4.664062 4.613281 4.9375 5.4375 Z M 4.9375 5.4375 "/></g></g></g><g fill="#ffffff" fill-opacity="1"><g transform="translate(77.547345, 227.312122)"><g><path d="M 18.84375 10.53125 L 6.765625 13.328125 L 4.90625 9.65625 L 10.734375 4.828125 L 3.390625 6.671875 L 1.53125 3.015625 L 10.9375 -5.03125 L 12.578125 -1.796875 L 5.890625 3.171875 L 14.078125 1.140625 L 15.734375 4.40625 L 9.28125 9.734375 L 17.203125 7.296875 Z M 18.84375 10.53125 "/></g></g></g><g fill="#ffffff" fill-opacity="1"><g transform="translate(86.73807, 244.428168)"><g/></g></g><g fill="#ffffff" fill-opacity="1"><g transform="translate(88.914451, 247.986642)"><g><path d="M 12.6875 3.578125 C 12.101562 4.003906 11.472656 4.257812 10.796875 4.34375 C 10.117188 4.4375 9.429688 4.316406 8.734375 3.984375 C 8.046875 3.660156 7.40625 3.109375 6.8125 2.328125 L 5.828125 1 L 2.578125 3.4375 L 0.578125 0.765625 L 10.203125 -6.4375 L 13.1875 -2.4375 C 13.769531 -1.664062 14.128906 -0.90625 14.265625 -0.15625 C 14.398438 0.582031 14.328125 1.269531 14.046875 1.90625 C 13.765625 2.539062 13.3125 3.097656 12.6875 3.578125 Z M 8.75 0.46875 C 9.3125 1.226562 9.941406 1.351562 10.640625 0.84375 C 11.335938 0.3125 11.40625 -0.332031 10.84375 -1.09375 L 10.046875 -2.15625 L 7.953125 -0.59375 Z M 8.75 0.46875 "/></g></g></g><g fill="#ffffff" fill-opacity="1"><g transform="translate(96.114703, 257.526381)"><g><path d="M 4.796875 5.15625 L 6.421875 0.390625 L 6.171875 0.125 L 2.921875 3.140625 L 0.65625 0.703125 L 9.46875 -7.484375 L 13.0625 -3.625 C 13.707031 -2.914062 14.132812 -2.203125 14.34375 -1.484375 C 14.550781 -0.765625 14.554688 -0.0820312 14.359375 0.5625 C 14.171875 1.21875 13.8125 1.796875 13.28125 2.296875 C 12.675781 2.859375 11.992188 3.1875 11.234375 3.28125 C 10.472656 3.375 9.707031 3.191406 8.9375 2.734375 L 7.34375 7.890625 Z M 7.84375 -1.4375 L 8.96875 -0.21875 C 9.28125 0.113281 9.59375 0.289062 9.90625 0.3125 C 10.226562 0.332031 10.535156 0.203125 10.828125 -0.078125 C 11.109375 -0.335938 11.253906 -0.625 11.265625 -0.9375 C 11.273438 -1.257812 11.125 -1.585938 10.8125 -1.921875 L 9.6875 -3.140625 Z M 7.84375 -1.4375 "/></g></g></g><g fill="#ffffff" fill-opacity="1"><g transform="translate(104.560748, 266.380031)"><g><path d="M 11.296875 -5.96875 L 3.171875 2.90625 L 0.703125 0.640625 L 8.828125 -8.234375 Z M 11.296875 -5.96875 "/></g></g></g><g fill="#ffffff" fill-opacity="1"><g transform="translate(109.096476, 270.706491)"><g><path d="M 4.109375 -4.46875 C 4.828125 -5.40625 5.660156 -6.085938 6.609375 -6.515625 C 7.566406 -6.953125 8.566406 -7.101562 9.609375 -6.96875 C 10.648438 -6.832031 11.640625 -6.40625 12.578125 -5.6875 C 13.765625 -4.769531 14.519531 -3.675781 14.84375 -2.40625 C 15.175781 -1.144531 15.039062 0.117188 14.4375 1.390625 L 11.578125 -0.796875 C 11.671875 -1.296875 11.640625 -1.753906 11.484375 -2.171875 C 11.335938 -2.585938 11.0625 -2.953125 10.65625 -3.265625 C 10.050781 -3.734375 9.394531 -3.890625 8.6875 -3.734375 C 7.988281 -3.578125 7.359375 -3.132812 6.796875 -2.40625 C 6.234375 -1.664062 5.96875 -0.9375 6 -0.21875 C 6.03125 0.5 6.347656 1.09375 6.953125 1.5625 C 7.359375 1.875 7.78125 2.050781 8.21875 2.09375 C 8.664062 2.132812 9.117188 2.039062 9.578125 1.8125 L 12.4375 4 C 11.375 4.914062 10.1875 5.378906 8.875 5.390625 C 7.570312 5.398438 6.328125 4.945312 5.140625 4.03125 C 4.203125 3.3125 3.523438 2.46875 3.109375 1.5 C 2.703125 0.539062 2.582031 -0.453125 2.75 -1.484375 C 2.925781 -2.523438 3.378906 -3.519531 4.109375 -4.46875 Z M 4.109375 -4.46875 "/></g></g></g><g fill="#ffffff" fill-opacity="1"><g transform="translate(120.328349, 279.116674)"><g><path d="M 8.53125 -5.75 L 7.515625 -4.078125 L 10.796875 -2.078125 L 9.46875 0.09375 L 6.1875 -1.90625 L 5.0625 -0.046875 L 8.78125 2.21875 L 7.390625 4.5 L 0.8125 0.5 L 7.078125 -9.78125 L 13.65625 -5.78125 L 12.25 -3.484375 Z M 8.53125 -5.75 "/></g></g></g><g fill="#ffffff" fill-opacity="1"><g transform="translate(129.117064, 284.325473)"><g/></g></g><g fill="#ffffff" fill-opacity="1"><g transform="translate(132.781919, 286.427186)"><g><path d="M 11.125 -4.015625 C 11.070312 -4.378906 10.925781 -4.707031 10.6875 -5 C 10.445312 -5.289062 10.113281 -5.523438 9.6875 -5.703125 C 8.914062 -6.035156 8.195312 -6.046875 7.53125 -5.734375 C 6.875 -5.421875 6.367188 -4.847656 6.015625 -4.015625 C 5.597656 -3.054688 5.519531 -2.222656 5.78125 -1.515625 C 6.039062 -0.804688 6.628906 -0.257812 7.546875 0.125 C 8.617188 0.59375 9.59375 0.4375 10.46875 -0.34375 L 7.375 -1.671875 L 8.328125 -3.875 L 14.078125 -1.40625 L 12.8125 1.5625 C 12.3125 2.050781 11.71875 2.445312 11.03125 2.75 C 10.34375 3.0625 9.570312 3.226562 8.71875 3.25 C 7.875 3.28125 6.992188 3.097656 6.078125 2.703125 C 4.972656 2.222656 4.09375 1.5625 3.4375 0.71875 C 2.789062 -0.113281 2.414062 -1.054688 2.3125 -2.109375 C 2.21875 -3.160156 2.410156 -4.238281 2.890625 -5.34375 C 3.347656 -6.414062 3.992188 -7.28125 4.828125 -7.9375 C 5.660156 -8.59375 6.601562 -8.976562 7.65625 -9.09375 C 8.707031 -9.207031 9.785156 -9.023438 10.890625 -8.546875 C 12.285156 -7.953125 13.289062 -7.125 13.90625 -6.0625 C 14.53125 -5 14.703125 -3.84375 14.421875 -2.59375 Z M 11.125 -4.015625 "/></g></g></g><g fill="#ffffff" fill-opacity="1"><g transform="translate(145.761364, 291.903183)"><g><path d="M 7.453125 -10.34375 L 5.484375 -3.640625 C 5.304688 -3.015625 5.3125 -2.488281 5.5 -2.0625 C 5.695312 -1.644531 6.085938 -1.347656 6.671875 -1.171875 C 7.265625 -1.003906 7.757812 -1.046875 8.15625 -1.296875 C 8.550781 -1.554688 8.835938 -1.992188 9.015625 -2.609375 L 10.984375 -9.3125 L 14.203125 -8.359375 L 12.234375 -1.65625 C 11.921875 -0.59375 11.425781 0.238281 10.75 0.84375 C 10.082031 1.457031 9.3125 1.84375 8.4375 2 C 7.5625 2.15625 6.648438 2.09375 5.703125 1.8125 C 4.765625 1.539062 3.984375 1.101562 3.359375 0.5 C 2.734375 -0.09375 2.320312 -0.820312 2.125 -1.6875 C 1.925781 -2.550781 1.984375 -3.519531 2.296875 -4.59375 L 4.265625 -11.296875 Z M 7.453125 -10.34375 "/></g></g></g><g fill="#ffffff" fill-opacity="1"><g transform="translate(158.553455, 295.618806)"><g><path d="M 8.765625 -0.515625 L 4.5625 -1.21875 L 3.609375 0.609375 L 0.140625 0.015625 L 6.453125 -11.109375 L 10.265625 -10.46875 L 12.578125 2.125 L 9.09375 1.53125 Z M 8.375 -3.171875 L 7.734375 -7.21875 L 5.828125 -3.59375 Z M 8.375 -3.171875 "/></g></g></g><g fill="#ffffff" fill-opacity="1"><g transform="translate(172.405364, 297.841247)"><g><path d="M 7.03125 0.359375 L 4.890625 -4.203125 L 4.53125 -4.21875 L 4.296875 0.21875 L 0.953125 0.046875 L 1.578125 -11.96875 L 6.84375 -11.6875 C 7.800781 -11.644531 8.609375 -11.4375 9.265625 -11.0625 C 9.921875 -10.6875 10.40625 -10.195312 10.71875 -9.59375 C 11.03125 -8.988281 11.164062 -8.320312 11.125 -7.59375 C 11.082031 -6.769531 10.820312 -6.0625 10.34375 -5.46875 C 9.863281 -4.882812 9.1875 -4.484375 8.3125 -4.265625 L 10.765625 0.5625 Z M 4.640625 -6.484375 L 6.28125 -6.390625 C 6.738281 -6.367188 7.082031 -6.460938 7.3125 -6.671875 C 7.550781 -6.878906 7.679688 -7.1875 7.703125 -7.59375 C 7.722656 -7.976562 7.625 -8.285156 7.40625 -8.515625 C 7.195312 -8.753906 6.867188 -8.882812 6.421875 -8.90625 L 4.78125 -9 Z M 4.640625 -6.484375 "/></g></g></g><g fill="#ffffff" fill-opacity="1"><g transform="translate(184.82009, 298.465566)"><g><path d="M 8.421875 -2.515625 L 4.15625 -2.234375 L 3.65625 -0.234375 L 0.140625 -0.015625 L 3.734375 -12.28125 L 7.59375 -12.53125 L 12.71875 -0.8125 L 9.203125 -0.578125 Z M 7.4375 -4.984375 L 5.890625 -8.796875 L 4.859375 -4.828125 Z M 7.4375 -4.984375 "/></g></g></g><g fill="#ffffff" fill-opacity="1"><g transform="translate(198.863463, 297.505625)"><g><path d="M 11.890625 -2.25 L 8.59375 -1.625 L 2.96875 -7.40625 L 4.21875 -0.796875 L 0.9375 -0.171875 L -1.296875 -12 L 1.984375 -12.625 L 7.625 -6.75 L 6.359375 -13.453125 L 9.65625 -14.078125 Z M 11.890625 -2.25 "/></g></g></g><g fill="#ffffff" fill-opacity="1"><g transform="translate(212.768761, 294.736553)"><g><path d="M 6.046875 -14.4375 L 6.828125 -11.890625 L 3.765625 -10.953125 L 6.515625 -2 L 3.3125 -1.015625 L 0.5625 -9.96875 L -2.46875 -9.046875 L -3.25 -11.59375 Z M 6.046875 -14.4375 "/></g></g></g><g fill="#ffffff" fill-opacity="1"><g transform="translate(223.59016, 291.335421)"><g><path d="M 0.390625 -10.265625 L 1.140625 -8.46875 L 4.6875 -9.953125 L 5.65625 -7.59375 L 2.109375 -6.109375 L 2.953125 -4.109375 L 6.984375 -5.78125 L 8 -3.3125 L 0.875 -0.359375 L -3.734375 -11.46875 L 3.390625 -14.421875 L 4.421875 -11.9375 Z M 0.390625 -10.265625 "/></g></g></g><g fill="#ffffff" fill-opacity="1"><g transform="translate(233.148184, 287.323703)"><g><path d="M -0.546875 -10.28125 L 0.359375 -8.546875 L 3.765625 -10.328125 L 4.953125 -8.0625 L 1.546875 -6.28125 L 2.5625 -4.359375 L 6.4375 -6.375 L 7.671875 -4.015625 L 0.84375 -0.4375 L -4.75 -11.09375 L 2.078125 -14.671875 L 3.328125 -12.296875 Z M -0.546875 -10.28125 "/></g></g></g><g fill="#ffffff" fill-opacity="1"><g transform="translate(242.411573, 282.49025)"><g><path d="M -1.921875 -13.1875 C -0.867188 -13.882812 0.191406 -14.285156 1.265625 -14.390625 C 2.335938 -14.492188 3.335938 -14.304688 4.265625 -13.828125 C 5.203125 -13.359375 5.992188 -12.632812 6.640625 -11.65625 C 7.285156 -10.695312 7.644531 -9.691406 7.71875 -8.640625 C 7.789062 -7.597656 7.570312 -6.597656 7.0625 -5.640625 C 6.5625 -4.691406 5.789062 -3.867188 4.75 -3.171875 L 0.796875 -0.53125 L -5.875 -10.546875 Z M 2.890625 -5.484375 C 3.710938 -6.023438 4.207031 -6.671875 4.375 -7.421875 C 4.539062 -8.179688 4.351562 -8.960938 3.8125 -9.765625 C 3.269531 -10.585938 2.613281 -11.070312 1.84375 -11.21875 C 1.082031 -11.363281 0.289062 -11.164062 -0.53125 -10.625 L -1.484375 -9.984375 L 1.9375 -4.84375 Z M 2.890625 -5.484375 "/></g></g></g><g fill="#ffffff" fill-opacity="1"><g transform="translate(253.506264, 274.834792)"><g/></g></g><g fill="#ffffff" fill-opacity="1"><g transform="translate(256.941316, 272.350204)"><g><path d="M 8.125 -4.765625 L 5.78125 -5.328125 C 5.550781 -5.015625 5.296875 -4.726562 5.015625 -4.46875 C 4.179688 -3.707031 3.238281 -3.203125 2.1875 -2.953125 C 1.144531 -2.703125 0.101562 -2.734375 -0.9375 -3.046875 C -1.976562 -3.359375 -2.898438 -3.953125 -3.703125 -4.828125 C -4.503906 -5.691406 -5.019531 -6.65625 -5.25 -7.71875 C -5.476562 -8.78125 -5.425781 -9.820312 -5.09375 -10.84375 C -4.769531 -11.875 -4.191406 -12.769531 -3.359375 -13.53125 C -2.523438 -14.300781 -1.582031 -14.8125 -0.53125 -15.0625 C 0.519531 -15.320312 1.5625 -15.289062 2.59375 -14.96875 C 3.625 -14.65625 4.539062 -14.066406 5.34375 -13.203125 C 6.007812 -12.472656 6.476562 -11.664062 6.75 -10.78125 C 7.03125 -9.894531 7.101562 -9.007812 6.96875 -8.125 L 11.0625 -7.46875 Z M -1.203125 -7.140625 C -0.566406 -6.441406 0.113281 -6.054688 0.84375 -5.984375 C 1.582031 -5.910156 2.269531 -6.164062 2.90625 -6.75 C 3.53125 -7.332031 3.835938 -7.992188 3.828125 -8.734375 C 3.816406 -9.484375 3.492188 -10.203125 2.859375 -10.890625 C 2.210938 -11.585938 1.519531 -11.96875 0.78125 -12.03125 C 0.0390625 -12.101562 -0.640625 -11.847656 -1.265625 -11.265625 C -1.898438 -10.679688 -2.207031 -10.019531 -2.1875 -9.28125 C -2.175781 -8.550781 -1.847656 -7.835938 -1.203125 -7.140625 Z M -1.203125 -7.140625 "/></g></g></g><g fill="#ffffff" fill-opacity="1"><g transform="translate(267.602151, 262.332736)"><g><path d="M -6.453125 -11.015625 L -1.125 -6.5 C -0.625 -6.082031 -0.140625 -5.875 0.328125 -5.875 C 0.796875 -5.875 1.226562 -6.109375 1.625 -6.578125 C 2.019531 -7.046875 2.179688 -7.515625 2.109375 -7.984375 C 2.035156 -8.453125 1.753906 -8.894531 1.265625 -9.3125 L -4.0625 -13.828125 L -1.90625 -16.375 L 3.421875 -11.859375 C 4.265625 -11.140625 4.832031 -10.351562 5.125 -9.5 C 5.414062 -8.644531 5.453125 -7.78125 5.234375 -6.90625 C 5.015625 -6.039062 4.585938 -5.234375 3.953125 -4.484375 C 3.328125 -3.742188 2.613281 -3.207031 1.8125 -2.875 C 1.019531 -2.539062 0.1875 -2.457031 -0.6875 -2.625 C -1.5625 -2.789062 -2.425781 -3.234375 -3.28125 -3.953125 L -8.609375 -8.46875 Z M -6.453125 -11.015625 "/></g></g></g><g fill="#ffffff" fill-opacity="1"><g transform="translate(276.172784, 252.135858)"><g><path d="M 3.078125 -8.21875 L 0.71875 -4.671875 L 2.015625 -3.046875 L 0.078125 -0.125 L -7.5625 -10.390625 L -5.4375 -13.609375 L 7.015625 -10.640625 L 5.078125 -7.6875 Z M 0.5 -8.9375 L -3.46875 -10 L -0.921875 -6.78125 Z M 0.5 -8.9375 "/></g></g></g><g fill="#ffffff" fill-opacity="1"><g transform="translate(283.716833, 240.396615)"><g><path d="M -0.28125 -5 L 1.453125 -8.3125 L 3.71875 -7.125 L 0.4375 -0.84375 L -10.234375 -6.40625 L -8.6875 -9.375 Z M -0.28125 -5 "/></g></g></g><g fill="#ffffff" fill-opacity="1"><g transform="translate(287.9368, 232.145611)"><g><path d="M -9.28125 -8.78125 L 1.734375 -3.9375 L 0.390625 -0.875 L -10.625 -5.71875 Z M -9.28125 -8.78125 "/></g></g></g><g fill="#ffffff" fill-opacity="1"><g transform="translate(290.483138, 226.490149)"><g><path d="M -8.015625 -13.4375 L -5.515625 -12.5625 L -6.578125 -9.53125 L 2.265625 -6.421875 L 1.15625 -3.265625 L -7.6875 -6.375 L -8.75 -3.390625 L -11.25 -4.265625 Z M -8.015625 -13.4375 "/></g></g></g><g fill="#ffffff" fill-opacity="1"><g transform="translate(294.254389, 215.721147)"><g><path d="M -8.96875 -14.34375 L -1.96875 -8.328125 L 1.75 -7.453125 L 0.984375 -4.1875 L -2.734375 -5.0625 L -11.6875 -2.828125 L -10.8125 -6.546875 L -5.8125 -7.546875 L -9.84375 -10.671875 Z M -8.96875 -14.34375 "/></g></g></g></svg>